<svg width="60" height="19" viewBox="0 0 60 19" fill="none" xmlns="http://www.w3.org/2000/svg">
<path fill-rule="evenodd" clip-rule="evenodd" d="M26.8271 4.5663C27.6577 4.07035 28.6241 3.82234 29.7264 3.82227C30.8197 3.82557 31.7789 4.07357 32.604 4.56627C33.4196 5.0477 34.0539 5.7115 34.507 6.55766C34.945 7.40382 35.164 8.36669 35.164 9.44627C35.164 9.55668 35.1614 9.66612 35.1563 9.77459L26.0904 9.77459C26.1322 10.4383 26.2947 11.0437 26.5779 11.5909C26.9102 12.2328 27.3234 12.7361 27.9125 13.1008C28.5015 13.4656 29.1111 13.6479 29.836 13.6479C30.7422 13.6479 31.4349 13.4656 32.0088 13.1008C32.5978 12.7215 32.9356 12.1817 33.1168 11.4815H34.9745C34.7781 12.6048 34.2516 13.5093 33.3001 14.195C32.3637 14.8661 31.1932 15.2016 29.836 15.2016C28.7335 15.2016 27.7992 14.9463 26.9383 14.4357C26.0774 13.9105 25.4527 13.2103 24.9694 12.3349C24.5012 11.4596 24.2671 10.4967 24.2671 9.44631C24.2671 8.36672 24.4861 7.40385 24.9241 6.55769C25.3772 5.71153 26.0115 5.04774 26.8271 4.5663ZM33.2632 8.33022C33.1921 7.92114 33.0781 7.54913 32.9212 7.21417C32.6343 6.60143 32.2189 6.13458 31.6752 5.81362C31.1219 5.48137 30.4723 5.31361 29.7264 5.31035C28.9715 5.31043 28.3146 5.47819 27.756 5.81366C27.2122 6.13462 26.7969 6.60146 26.5099 7.2142C26.3531 7.54916 26.2391 7.92121 26.168 8.33029L33.2632 8.33022Z" fill="white"/>
<path d="M39.073 14.4138C39.9188 14.939 40.9232 15.2016 42.0861 15.2016C43.0376 15.2016 43.8758 15.0485 44.6008 14.7421C45.3408 14.4211 45.9374 13.9835 46.3905 13.4291C46.8436 12.8747 47.1306 12.2182 47.2514 11.4596H45.4843C45.288 12.1307 44.8877 12.6632 44.2836 13.0571C43.6946 13.4364 42.9696 13.626 42.1088 13.626C40.9307 13.626 40.017 13.2394 39.3675 12.4662C38.7332 11.693 38.416 10.7082 38.416 9.51195C38.416 8.73874 38.552 8.04577 38.8238 7.43303C39.1108 6.80571 39.5261 6.30968 40.0698 5.94496C40.6287 5.58023 41.3083 5.39787 42.1088 5.39787C42.9696 5.39787 43.7173 5.61671 44.3516 6.05438C44.9859 6.49204 45.3635 7.04642 45.4843 7.71751H47.2741C47.1683 6.92971 46.8663 6.24403 46.3679 5.66047C45.8695 5.06233 45.2427 4.61007 44.4875 4.3037C43.7475 3.98274 42.947 3.82227 42.0861 3.82227C40.9232 3.82227 39.9188 4.08487 39.073 4.61007C38.2424 5.13527 37.608 5.83554 37.17 6.71088C36.7471 7.57163 36.5357 8.50532 36.5357 9.51195C36.5357 10.5186 36.7471 11.4596 37.17 12.3349C37.608 13.1957 38.2424 13.8886 39.073 14.4138Z" fill="white"/>
<path fill-rule="evenodd" clip-rule="evenodd" d="M54.1777 15.2016C53.0752 15.2016 52.0784 14.9609 51.1873 14.4795C50.2962 13.9835 49.6015 13.3051 49.1031 12.4443C48.6198 11.5836 48.3781 10.6061 48.3781 9.51195C48.3781 8.41778 48.6198 7.44032 49.1031 6.57958C49.6015 5.71883 50.2962 5.04774 51.1873 4.5663C52.0784 4.07028 53.0752 3.82227 54.1777 3.82227C55.2954 3.82227 56.2922 4.07028 57.1682 4.5663C58.0592 5.04774 58.754 5.71883 59.2524 6.57958C59.7508 7.44032 60 8.41778 60 9.51195C60 10.6061 59.7508 11.5836 59.2524 12.4443C58.754 13.3051 58.0592 13.9835 57.1682 14.4795C56.2922 14.9609 55.2954 15.2016 54.1777 15.2016ZM54.1777 13.626C54.948 13.626 55.6352 13.451 56.2393 13.1008C56.8434 12.7507 57.3041 12.262 57.6213 11.6346C57.9535 11.0073 58.1197 10.2998 58.1197 9.51195C58.1197 8.72415 57.9535 8.01659 57.6213 7.38926C57.3041 6.76194 56.8434 6.27321 56.2393 5.92307C55.6352 5.57294 54.948 5.39787 54.1777 5.39787C53.4075 5.39787 52.7203 5.57294 52.1161 5.92307C51.5271 6.27321 51.0665 6.76194 50.7342 7.38926C50.4019 8.01659 50.2358 8.72415 50.2358 9.51195C50.2358 10.2998 50.4019 11.0073 50.7342 11.6346C51.0665 12.262 51.5271 12.7507 52.1161 13.1008C52.7203 13.451 53.4075 13.626 54.1777 13.626Z" fill="white"/>
<path d="M9.83484 16.9348C7.67425 16.9348 5.7216 16.0749 4.32366 14.69C6.9401 14.3854 9.49781 13.3678 11.6672 11.6094C14.576 9.25174 16.2482 5.99874 16.6144 2.61779C14.8501 0.99567 12.4628 0 9.83485 0C4.40321 0 0 4.25329 0 9.5C0 9.96135 0.0340457 10.415 0.0998424 10.8588C0.830409 11.0366 1.57865 11.1367 2.33016 11.1579C1.70931 8.52588 2.59937 5.65916 4.88741 3.80463C7.63946 1.57401 11.5332 1.52161 14.3226 3.45761C13.8117 5.93872 12.4552 8.27475 10.2929 10.0273C7.47184 12.3139 3.87637 13.1232 0.514462 12.5404C1.82698 16.296 5.50401 19 9.83485 19C15.2665 19 19.6697 14.7467 19.6697 9.5C19.6697 9.39856 19.668 9.2975 19.6648 9.19683C19.296 9.48976 18.9119 9.76472 18.5139 10.0205C18.1665 10.2437 17.8085 10.4522 17.4409 10.6453C16.8707 14.2076 13.6825 16.9348 9.83484 16.9348Z" fill="white"/>
</svg>
